<svg width="24.000000" height="24.000000" viewBox="0 0 24 24" fill="none" xmlns="http://www.w3.org/2000/svg" xmlns:xlink="http://www.w3.org/1999/xlink">
	<desc>
			Created with Pixso.
	</desc>
	<defs/>
	<path id="path" d="M15.7075 12.7075L10.7075 17.7075C10.6136 17.8012 10.5055 17.8734 10.3829 17.9241C10.2604 17.9747 10.1328 18.0001 10.0002 18C9.86754 17.9999 9.73997 17.9745 9.61748 17.9238C9.49496 17.873 9.38683 17.8007 9.29305 17.707C9.19928 17.6132 9.127 17.5051 9.07623 17.3825C9.02545 17.26 9.00005 17.1324 8.99998 16.9998C8.99994 16.8672 9.02525 16.7396 9.07593 16.6171C9.1266 16.4946 9.19881 16.3864 9.2925 16.2925L12.5863 13L1 13C0.867386 13 0.739838 12.9746 0.61731 12.9239C0.494797 12.8731 0.386658 12.8009 0.292892 12.7071C0.199127 12.6133 0.126862 12.5052 0.0761261 12.3827C0.0253754 12.2602 0 12.1326 0 12C0 11.8674 0.0253754 11.7398 0.0761261 11.6173C0.126862 11.4948 0.199127 11.3867 0.292892 11.2929C0.386658 11.1991 0.494797 11.1269 0.61731 11.0761C0.739838 11.0254 0.867386 11 1 11L12.5863 11L9.2925 7.70752C9.19868 7.61371 9.12639 7.50549 9.07561 7.38287C9.02483 7.26031 8.99944 7.13269 8.99945 7C8.99944 6.86731 9.02483 6.73969 9.07561 6.61713C9.12639 6.49451 9.19868 6.38629 9.2925 6.29248C9.38632 6.19867 9.49452 6.1264 9.6171 6.07562C9.73969 6.02484 9.86732 5.99945 10 5.99945C10.1327 5.99945 10.2603 6.02484 10.3829 6.07562C10.5055 6.1264 10.6137 6.19867 10.7075 6.29248L15.7075 11.2925C15.8014 11.3863 15.8737 11.4944 15.9246 11.6171C15.9754 11.7396 16.0008 11.8673 16.0008 12C16.0008 12.1327 15.9754 12.2604 15.9246 12.3829C15.8737 12.5056 15.8014 12.6137 15.7075 12.7075ZM22 0L15 0C14.8674 0 14.7398 0.0253906 14.6173 0.0761108C14.4948 0.126892 14.3867 0.199097 14.2929 0.292908C14.1991 0.386658 14.1269 0.494812 14.0761 0.61731C14.0254 0.739807 14 0.867371 14 1C14 1.13263 14.0254 1.26019 14.0761 1.38269C14.1269 1.50519 14.1991 1.61334 14.2929 1.70709C14.3867 1.8009 14.4948 1.87311 14.6173 1.92389C14.7398 1.97461 14.8674 2 15 2L22 2L22 22L15 22C14.8674 22 14.7398 22.0254 14.6173 22.0761C14.4948 22.1269 14.3867 22.1991 14.2929 22.2929C14.1991 22.3867 14.1269 22.4948 14.0761 22.6173C14.0254 22.7398 14 22.8674 14 23C14 23.1326 14.0254 23.2602 14.0761 23.3827C14.1269 23.5052 14.1991 23.6133 14.2929 23.7071C14.3867 23.8009 14.4948 23.8731 14.6173 23.9239C14.7398 23.9746 14.8674 24 15 24L22 24C22.2652 24 22.5203 23.9492 22.7654 23.8478C23.0104 23.7463 23.2267 23.6017 23.4142 23.4142C23.6017 23.2267 23.7463 23.0104 23.8478 22.7654C23.9492 22.5203 24 22.2652 24 22L24 2C24 1.7348 23.9492 1.47968 23.8478 1.23462C23.7463 0.989624 23.6017 0.773315 23.4142 0.585815C23.2267 0.398254 23.0104 0.253723 22.7654 0.152222C22.5203 0.0507202 22.2652 0 22 0Z" fill="#8CCB5E" fill-opacity="1.000000" fill-rule="nonzero"/>
</svg>
