<svg width="24.000000" height="24.000000" viewBox="0 0 24 24" fill="none" xmlns="http://www.w3.org/2000/svg" xmlns:xlink="http://www.w3.org/1999/xlink">
	<desc>
			Created with Pixso.
	</desc>
	<defs/>
	<path id="path" d="M12 0C11.607 0 11.2149 0.0192871 10.8238 0.0578003C10.4327 0.0963135 10.0444 0.153931 9.65892 0.230591C9.27345 0.307251 8.89267 0.402649 8.51659 0.516724C8.14049 0.630798 7.77089 0.763062 7.40779 0.913452C7.04469 1.06384 6.68985 1.23169 6.34323 1.41693C5.99663 1.60223 5.65994 1.80402 5.33316 2.02234C5.00638 2.24072 4.69109 2.47455 4.38728 2.72388C4.08348 2.97321 3.79262 3.23682 3.51472 3.51471C3.23682 3.7926 2.97321 4.0835 2.72388 4.38727C2.47455 4.6911 2.24071 5.00635 2.02237 5.33313C1.80402 5.65991 1.6022 5.99664 1.41695 6.34326C1.23167 6.68982 1.06384 7.04468 0.913452 7.40778C0.763046 7.77087 0.630798 8.1405 0.516708 8.5166C0.402634 8.8927 0.307251 9.27344 0.230576 9.65894C0.1539 10.0444 0.0962982 10.4327 0.057785 10.8238C0.0192566 11.2149 0 11.607 0 12C0 12.393 0.0192566 12.7851 0.057785 13.1762C0.0962982 13.5673 0.1539 13.9556 0.230576 14.3411C0.307251 14.7266 0.402634 15.1073 0.516708 15.4834C0.630798 15.8595 0.763046 16.2291 0.913452 16.5922C1.06384 16.9553 1.23167 17.3102 1.41695 17.6567C1.6022 18.0034 1.80402 18.3401 2.02237 18.6669C2.24071 18.9937 2.47455 19.3089 2.72388 19.6127C2.97321 19.9165 3.23682 20.2074 3.51472 20.4853C3.79262 20.7632 4.08348 21.0268 4.38728 21.2761C4.69109 21.5255 5.00638 21.7593 5.33316 21.9777C5.65994 22.196 5.99663 22.3978 6.34323 22.5831C6.68985 22.7683 7.04469 22.9362 7.40779 23.0865C7.77089 23.2369 8.14049 23.3692 8.51659 23.4833C8.89267 23.5974 9.27345 23.6927 9.65892 23.7694C10.0444 23.8461 10.4327 23.9037 10.8238 23.9422C11.2149 23.9807 11.607 24 12 24C12.393 24 12.7851 23.9807 13.1762 23.9422C13.5673 23.9037 13.9556 23.8461 14.3411 23.7694C14.7265 23.6927 15.1073 23.5974 15.4834 23.4833C15.8595 23.3692 16.2291 23.2369 16.5922 23.0865C16.9553 22.9362 17.3102 22.7683 17.6568 22.5831C18.0034 22.3978 18.3401 22.196 18.6668 21.9777C18.9936 21.7593 19.3089 21.5255 19.6127 21.2761C19.9165 21.0268 20.2074 20.7632 20.4853 20.4853C20.7632 20.2074 21.0268 19.9165 21.2761 19.6127C21.5255 19.3089 21.7593 18.9937 21.9776 18.6669C22.196 18.3401 22.3978 18.0034 22.5831 17.6567C22.7683 17.3102 22.9362 16.9553 23.0865 16.5922C23.2369 16.2291 23.3692 15.8595 23.4833 15.4834C23.5974 15.1073 23.6927 14.7266 23.7694 14.3411C23.8461 13.9556 23.9037 13.5673 23.9422 13.1762C23.9807 12.7851 24 12.393 24 12C23.9996 11.6071 23.9799 11.2151 23.9411 10.8242C23.9022 10.4332 23.8443 10.0451 23.7673 9.65979C23.6904 9.27454 23.5948 8.89392 23.4804 8.51801C23.3661 8.14209 23.2337 7.77271 23.0832 7.40979C22.9326 7.04688 22.7647 6.6922 22.5793 6.34576C22.394 5.99933 22.1921 5.66278 21.9738 5.33618C21.7554 5.00952 21.5215 4.6944 21.2722 4.39069C21.0229 4.08698 20.7594 3.79626 20.4816 3.51843C20.2037 3.2406 19.913 2.97705 19.6093 2.72778C19.3056 2.47845 18.9905 2.24463 18.6638 2.02625C18.3372 1.80786 18.0007 1.60602 17.6543 1.42065C17.3078 1.23535 16.9532 1.06738 16.5902 0.916809C16.2273 0.766296 15.8579 0.63385 15.482 0.519531C15.1061 0.405273 14.7255 0.309631 14.3402 0.232666C13.9549 0.155701 13.5668 0.0977783 13.1758 0.05896C12.7848 0.0200806 12.3929 0.000427246 12 0ZM5.77846 20.0192C5.94475 19.7592 6.12662 19.5105 6.3241 19.2733C6.52156 19.036 6.73308 18.812 6.95863 18.6013C7.18419 18.3905 7.42203 18.1947 7.67215 18.0138C7.92226 17.8329 8.18269 17.6683 8.45345 17.5201C8.7242 17.3718 9.00316 17.2411 9.2903 17.1278C9.57745 17.0145 9.87056 16.9196 10.1696 16.8431C10.4687 16.7666 10.7713 16.7091 11.0776 16.6705C11.3839 16.632 11.6913 16.6127 12 16.6127C12.3087 16.6127 12.6161 16.632 12.9224 16.6705C13.2287 16.7091 13.5313 16.7666 13.8304 16.8431C14.1294 16.9196 14.4225 17.0145 14.7097 17.1278C14.9968 17.2411 15.2758 17.3718 15.5466 17.5201C15.8173 17.6683 16.0777 17.8329 16.3279 18.0138C16.578 18.1947 16.8158 18.3905 17.0414 18.6013C17.2669 18.812 17.4784 19.036 17.6759 19.2733C17.8734 19.5105 18.0553 19.7592 18.2215 20.0192C17.7799 20.3627 17.313 20.6675 16.8208 20.9337C16.3287 21.1998 15.818 21.4237 15.2888 21.6053C14.7595 21.7869 14.219 21.9236 13.6671 22.0157C13.1152 22.1077 12.5595 22.1537 12 22.1537C11.4405 22.1537 10.8848 22.1077 10.3329 22.0157C9.78102 21.9236 9.24046 21.7869 8.71124 21.6053C8.18201 21.4237 7.67133 21.1998 7.17917 20.9337C6.68703 20.6675 6.22012 20.3627 5.77846 20.0192ZM8.30769 11.0769C8.30769 10.8345 8.33134 10.5944 8.37863 10.3566C8.42593 10.1188 8.49597 9.88794 8.58875 9.66394C8.68153 9.43994 8.79526 9.22717 8.92996 9.02557C9.06465 8.82397 9.21771 8.63751 9.38914 8.46606C9.56058 8.29462 9.74709 8.1416 9.94867 8.0069C10.1502 7.87219 10.363 7.75842 10.587 7.66565C10.811 7.57288 11.0419 7.50287 11.2797 7.45557C11.5174 7.40826 11.7576 7.38464 12 7.38464C12.2424 7.38464 12.4825 7.40826 12.7203 7.45557C12.9581 7.50287 13.189 7.57288 13.413 7.66565C13.637 7.75842 13.8497 7.87219 14.0513 8.0069C14.2529 8.1416 14.4394 8.29462 14.6109 8.46606C14.7823 8.63751 14.9353 8.82397 15.07 9.02557C15.2047 9.22717 15.3185 9.43994 15.4112 9.66394C15.504 9.88794 15.5741 10.1188 15.6214 10.3566C15.6687 10.5944 15.6923 10.8345 15.6923 11.0769C15.6923 11.3193 15.6687 11.5594 15.6214 11.7972C15.5741 12.035 15.504 12.2659 15.4112 12.4899C15.3185 12.7139 15.2047 12.9267 15.07 13.1282C14.9353 13.3298 14.7823 13.5164 14.6109 13.6878C14.4394 13.8592 14.2529 14.0123 14.0513 14.147C13.8497 14.2817 13.637 14.3954 13.413 14.4882C13.189 14.5809 12.9581 14.651 12.7203 14.6983C12.4825 14.7456 12.2424 14.7692 12 14.7692C11.7576 14.7692 11.5174 14.7456 11.2797 14.6983C11.0419 14.651 10.811 14.5809 10.587 14.4882C10.363 14.3954 10.1502 14.2817 9.94867 14.147C9.74709 14.0123 9.56058 13.8592 9.38914 13.6878C9.21771 13.5164 9.06465 13.3298 8.92996 13.1282C8.79526 12.9267 8.68153 12.7139 8.58875 12.4899C8.49597 12.2659 8.42593 12.035 8.37863 11.7972C8.33134 11.5594 8.30769 11.3193 8.30769 11.0769ZM19.5877 18.7396C19.0729 17.9937 18.4613 17.3383 17.7526 16.7733C17.044 16.2083 16.2688 15.758 15.4269 15.4223C15.7271 15.1859 15.9998 14.9213 16.2452 14.6285C16.4905 14.3356 16.7033 14.0208 16.8835 13.684C17.0638 13.3471 17.2076 12.9954 17.315 12.6287C17.4224 12.2621 17.4912 11.8884 17.5213 11.5075C17.5513 11.1266 17.5421 10.7468 17.4936 10.3678C17.4451 9.98889 17.3583 9.6189 17.2332 9.25793C17.1081 8.89697 16.9474 8.55261 16.751 8.22491C16.5547 7.89716 16.3269 7.59302 16.0676 7.31244C15.8083 7.03186 15.523 6.78082 15.2118 6.55927C14.9005 6.33771 14.5699 6.15039 14.2199 5.99725C13.8699 5.84412 13.5079 5.72845 13.134 5.65021C12.76 5.57202 12.382 5.5329 12 5.5329C11.618 5.5329 11.24 5.57202 10.866 5.65021C10.4921 5.72845 10.1301 5.84412 9.78011 5.99725C9.4301 6.15039 9.09947 6.33771 8.78822 6.55927C8.47699 6.78082 8.19173 7.03186 7.93243 7.31244C7.67316 7.59302 7.44533 7.89716 7.24899 8.22491C7.05264 8.55261 6.89192 8.89697 6.76683 9.25793C6.64174 9.6189 6.55493 9.98889 6.50641 10.3678C6.45787 10.7468 6.44865 11.1266 6.47874 11.5075C6.50882 11.8884 6.57758 12.2621 6.68501 12.6287C6.79243 12.9954 6.93625 13.3471 7.11647 13.684C7.29668 14.0208 7.50948 14.3356 7.75484 14.6285C8.00021 14.9213 8.27295 15.1859 8.57307 15.4223C7.73125 15.758 6.95601 16.2083 6.24738 16.7733C5.53874 17.3383 4.92706 17.9937 4.41231 18.7396C4.19682 18.4973 3.99341 18.2452 3.80208 17.9834C3.61073 17.7216 3.43236 17.4512 3.26692 17.1724C3.10149 16.8934 2.94977 16.6073 2.81175 16.3138C2.67374 16.0204 2.55005 15.7211 2.44072 15.4158C2.33139 15.1105 2.23689 14.8007 2.15724 14.4863C2.07759 14.172 2.01314 13.8546 1.9639 13.5341C1.91466 13.2135 1.88084 12.8914 1.86247 12.5676C1.8441 12.2439 1.84123 11.92 1.8539 11.5959C1.86655 11.272 1.89465 10.9493 1.93823 10.6279C1.9818 10.3066 2.04062 9.9881 2.11472 9.67236C2.1888 9.35669 2.2778 9.04523 2.38173 8.7381C2.48566 8.43091 2.60402 8.12939 2.73683 7.83356C2.86964 7.53772 3.01628 7.24896 3.17676 6.96716C3.33725 6.68536 3.51083 6.41193 3.69751 6.14679C3.88419 5.88159 4.08311 5.62598 4.29428 5.37988C4.50546 5.13379 4.72791 4.89838 4.96164 4.67358C5.19536 4.44885 5.4393 4.23572 5.69344 4.0343C5.94759 3.83295 6.21077 3.6441 6.483 3.46796C6.75523 3.29175 7.03526 3.12897 7.32309 2.97961C7.61092 2.83026 7.90523 2.69495 8.20602 2.57379C8.50681 2.45264 8.8127 2.34613 9.12369 2.25427C9.43468 2.16241 9.74934 2.08563 10.0677 2.02393C10.386 1.96222 10.7066 1.91583 11.0294 1.88489C11.3522 1.85388 11.6757 1.83838 12 1.83838C12.3243 1.83838 12.6478 1.85388 12.9706 1.88489C13.2934 1.91583 13.614 1.96222 13.9323 2.02393C14.2507 2.08563 14.5653 2.16241 14.8763 2.25427C15.1873 2.34613 15.4932 2.45264 15.794 2.57379C16.0948 2.69495 16.3891 2.83026 16.6769 2.97961C16.9647 3.12897 17.2448 3.29175 17.517 3.46796C17.7892 3.6441 18.0524 3.83295 18.3065 4.0343C18.5607 4.23572 18.8046 4.44885 19.0384 4.67358C19.2721 4.89838 19.4945 5.13379 19.7057 5.37988C19.9169 5.62598 20.1158 5.88159 20.3025 6.14679C20.4892 6.41193 20.6628 6.68536 20.8232 6.96716C20.9837 7.24896 21.1304 7.53772 21.2632 7.83356C21.396 8.12939 21.5143 8.43091 21.6183 8.7381C21.7222 9.04523 21.8112 9.35669 21.8853 9.67236C21.9594 9.9881 22.0182 10.3066 22.0618 10.6279C22.1053 10.9493 22.1335 11.2719 22.1461 11.5959C22.1588 11.92 22.1559 12.2439 22.1375 12.5676C22.1191 12.8914 22.0853 13.2135 22.0361 13.5341C21.9869 13.8546 21.9224 14.172 21.8428 14.4863C21.7631 14.8007 21.6686 15.1105 21.5593 15.4158C21.45 15.7211 21.3263 16.0204 21.1883 16.3138C21.0502 16.6073 20.8985 16.8934 20.7331 17.1724C20.5677 17.4512 20.3893 17.7216 20.1979 17.9834C20.0066 18.2452 19.8032 18.4973 19.5877 18.7396Z" fill="#00a0ac" fill-opacity="1.000000" fill-rule="nonzero"/>
</svg>
