<svg width="24.000793" height="24.000000" viewBox="0 0 24.0008 24" fill="none" xmlns="http://www.w3.org/2000/svg" xmlns:xlink="http://www.w3.org/1999/xlink">
	<desc>
			Created with Pixso.
	</desc>
	<defs/>
	<path id="path" d="M10 23C10 23.1326 9.97462 23.2601 9.92387 23.3827C9.87314 23.5052 9.80087 23.6133 9.70711 23.7072C9.61334 23.8009 9.5052 23.8732 9.38269 23.9238C9.26016 23.9746 9.13261 24 9 24L2 24C1.73479 24 1.47966 23.9492 1.23463 23.8478C0.989609 23.7462 0.773315 23.6018 0.585785 23.4142C0.398254 23.2267 0.253738 23.0104 0.152237 22.7654C0.0507507 22.5204 0 22.2653 0 22L0 2C0 1.73474 0.0507507 1.47961 0.152237 1.23462C0.253738 0.989624 0.398254 0.773315 0.585785 0.585815C0.773315 0.398193 0.989609 0.253784 1.23463 0.152222C1.47966 0.0507812 1.73479 0 2 0L9 0C9.13261 0 9.26016 0.0253906 9.38269 0.0761719C9.5052 0.126831 9.61334 0.199097 9.70711 0.292847C9.80087 0.386719 9.87314 0.494751 9.92387 0.61731C9.97462 0.739868 10 0.867432 10 1C10 1.13257 9.97462 1.26013 9.92387 1.38269C9.87314 1.50525 9.80087 1.61328 9.70711 1.70715C9.61334 1.8009 9.5052 1.87317 9.38269 1.92383C9.26016 1.97461 9.13261 2 9 2L2 2L2 22L9 22C9.13261 22 9.26016 22.0254 9.38269 22.0762C9.5052 22.1268 9.61334 22.1991 9.70711 22.2928C9.80087 22.3867 9.87314 22.4948 9.92387 22.6173C9.97462 22.7399 10 22.8674 10 23ZM23.7075 11.2925L18.7075 6.29248C18.6137 6.19873 18.5055 6.12634 18.3829 6.07556C18.2603 6.02478 18.1327 5.99939 18 5.99939C17.8673 5.99939 17.7397 6.02478 17.6171 6.07556C17.4945 6.12634 17.3863 6.19873 17.2925 6.29248C17.1987 6.38635 17.1264 6.49451 17.0756 6.61707C17.0248 6.73962 16.9995 6.86731 16.9995 7C16.9995 7.13269 17.0248 7.26025 17.0756 7.38293C17.1264 7.50549 17.1987 7.61365 17.2925 7.70752L20.5862 11L9 11C8.86739 11 8.73982 11.0254 8.61731 11.0762C8.4948 11.1268 8.38666 11.1991 8.29289 11.2928C8.19913 11.3867 8.12686 11.4948 8.07613 11.6173C8.02538 11.7399 8 11.8674 8 12C8 12.1326 8.02538 12.2601 8.07613 12.3827C8.12686 12.5052 8.19913 12.6133 8.29289 12.7072C8.38666 12.8009 8.4948 12.8732 8.61731 12.9238C8.73982 12.9746 8.86739 13 9 13L20.5862 13L17.2925 16.2925C17.1987 16.3864 17.1264 16.4945 17.0756 16.6171C17.0248 16.7397 16.9995 16.8673 16.9995 17C16.9995 17.1327 17.0248 17.2603 17.0756 17.3829C17.1264 17.5055 17.1987 17.6136 17.2925 17.7075C17.3863 17.8013 17.4945 17.8737 17.6171 17.9244C17.7397 17.9752 17.8673 18.0006 18 18.0006C18.1327 18.0006 18.2603 17.9752 18.3829 17.9244C18.5055 17.8737 18.6137 17.8013 18.7075 17.7075L23.7075 12.7075C23.8014 12.6138 23.8737 12.5055 23.9246 12.3829C23.9754 12.2604 24.0008 12.1327 24.0008 12C24.0008 11.8673 23.9754 11.7396 23.9246 11.6171C23.8737 11.4945 23.8014 11.3862 23.7075 11.2925Z" fill="#000000" fill-opacity="1.000000" fill-rule="nonzero"/>
</svg>
